<svg version="1" xmlns="http://www.w3.org/2000/svg" width="346.667" height="346.667" viewBox="0 0 260.000000 260.000000"><path d="M134.5 1.1c-.4.5-1.7 1.5-2.8 2-1.2.5-4 2-6.2 3.4-2.2 1.3-5.7 3.2-7.7 4.2-2.1 1-3.8 2.1-3.8 2.5 0 .5-.4.8-1 .8-.5 0-3.9 1.8-7.5 4s-6.9 4-7.4 4-1.1.3-1.3.7c-.2.5-2.9 2.1-6 3.8-3.2 1.6-5.8 3.3-5.8 3.7 0 .5-.5.8-1.1.8-1.3 0-15.2 8.1-16.1 9.5-.4.5-.8.7-.8.2 0-.4-1.7.3-3.7 1.6-2.1 1.3-7.2 4.3-11.3 6.7-4.1 2.4-8.6 5-10 5.9-1.4.8-2.8 1.4-3.2 1.3-1-.3-1-.3-1.2 8.1 0 3.7.3 6.7.7 6.7.5 0 .5.6 0 1.2-1.1 1.8-1.1 12.8 0 12.8.5 0 .5.5 0 1.2-.6.7-.9 2.1-.8 3 .2 1-6.8 8.9-18.6 20.8l-19 19.2 2.3 2.1c1.3 1.2 3.3 3.5 4.6 5.1C8 138 9 139 9 138.7c0-.4 6.4 5.8 14.2 13.6l14.2 14.2v17.2l.1 17.3 2.7 1.1c1.6.6 2.8 1.6 2.8 2.1s.4.7.9.4c.5-.3 1.4.1 2.1.9.7.8 1.9 1.5 2.6 1.5.8 0 1.4.3 1.4.7 0 .5 1 1.3 2.3 1.9 3.9 1.8 11.2 5.9 11.7 6.5.3.4 1.5.9 2.8 1.3 1.2.4 2.2 1.2 2.2 1.7 0 .6.5.7 1 .4.6-.3 1-.2 1 .3 0 .6 1.2 1.5 2.8 2.1 1.5.6 4.7 2.3 7.2 3.9 2.5 1.5 9.3 5.4 15 8.7 5.8 3.3 10.7 6.3 10.8 6.7.2.4.8.8 1.4.8 1 0 12.8 6.8 13.8 7.9.3.3 1.1.7 1.9.9.8.2 2.7 1.2 4.2 2.3 1.5 1 3.1 1.9 3.5 1.9.4 0 1.5.7 2.5 1.6 1.7 1.5 2.3 1.3 8.6-2.3 3.7-2.2 7.9-4.6 9.3-5.4 1.4-.8 2.8-1.9 3.2-2.4.4-.6.8-.6.8-.2 0 .5 1.2-.1 2.6-1.2 1.5-1.2 3.3-2.1 4-2.1.8 0 1.4-.3 1.4-.8 0-.4 1.3-1.3 3-2 1.6-.7 4.5-2.4 6.4-3.7 1.9-1.3 3.7-2.1 4-1.7.3.3.6 0 .6-.6 0-.7.6-1.2 1.4-1.2.8 0 2.1-.6 2.8-1.3.7-.7 2-1.6 2.8-2 .8-.3 3.8-2 6.5-3.7 2.8-1.7 5.8-3.3 6.8-3.6.9-.4 1.7-1.1 1.7-1.7 0-.6.2-.8.5-.5.6.5 15.6-7.9 18.1-10.1.7-.5 1.5-.7 1.8-.4.3.4.6.2.6-.3 0-.6 1.6-1.6 3.5-2.4 1.9-.8 3.5-1.7 3.5-2.1 0-.3 1.4-1.2 3-1.9l3-1.3-.2-20.6-.3-20.6-11.2-.1-11.3-.1-.1 5.6v12.6c0 6.9-.7 9.7-2.5 9.7-.5 0-3.9 1.7-7.5 3.8-3.6 2.2-7.8 4.4-9.2 5.1-1.5.7-2.7 1.6-2.7 2.1 0 .4-.4.8-.9.8-.6 0-3.6 1.5-6.8 3.4-3.2 1.9-6.2 3.4-6.7 3.4s-1.3.7-1.8 1.6c-.5.9-1.8 1.6-2.8 1.6-1.1 0-2 .4-2 .9s-.8 1.2-1.7 1.5c-1 .3-2.7 1.2-3.8 1.9-4.3 2.7-9 5.1-9.7 4.9-.5-.1-.8.1-.8.6 0 .4-1.7 1.6-3.7 2.7-2.1 1.1-4 2.2-4.3 2.5-.3.3-2 1.3-3.8 2.4-3 1.6-3.7 1.7-6 .5-1.5-.8-2.9-1.6-3.2-1.9-.3-.3-6.3-3.9-13.5-7.9-7.1-4.1-13.1-7.8-13.3-8.2-.2-.4-.9-.6-1.6-.3-.8.3-1.6-.2-1.9-1-.4-.9-1.2-1.6-2-1.6-.7 0-2.8-1.1-4.7-2.5-1.8-1.3-3.7-2.2-4.1-1.9-.5.3-.9.1-.9-.4s-1.5-1.7-3.2-2.6c-1.8-.9-5.5-3-8.3-4.7-2.7-1.6-6.1-3.5-7.5-4.2-1.4-.6-2.7-1.4-3-1.8-.3-.3-1.4-1.1-2.5-1.7-1.9-1-2-2-2-15.8l.1-14.7-13.7-13.9L35.2 129l13.6-13.8 13.7-13.7v-30l7.5-4.2c4.1-2.3 8-4.6 8.7-5.2.7-.6 1.4-1.1 1.7-1.1.9 0 15.1-8.5 15.8-9.4.4-.6.8-.7.8-.3 0 .5 1.3-.1 2.9-1.2 1.6-1.2 3.4-2.1 4-2.1.6 0 1.1-.4 1.1-.9s1-1.3 2.3-1.7c1.2-.3 3-1.3 4-2.2.9-.8 1.7-1.1 1.7-.7 0 .4.8.1 1.8-.7.9-.9 6.2-4.1 11.6-7.2l9.9-5.7 3.5 1.8c5 2.6 18 10.1 23.2 13.3 2.5 1.6 16.4 9.6 18 10.3.8.4 2.4 1.3 3.5 2 8.8 5.3 14.8 8.7 15.6 8.7.5 0 .9.3.9.8 0 .4 1.5 1.3 3.3 2.1 6.4 2.8 6.6 3.2 6.6 16v12.6c.1.7 4.3 1.1 11.6 1.1H234V76.8c0-19-.2-20.9-1.7-21.5-1-.4-3.7-1.9-5.9-3.4-2.3-1.6-4.4-2.6-4.6-2.3-.3.2-1.1-.2-1.8-1.1-.7-.8-1.8-1.5-2.5-1.5-.8 0-1.5-.3-1.7-.8-.1-.4-2.4-1.8-5-3.2-2.7-1.3-4.8-2.8-4.8-3.2 0-.5-.3-.7-.7-.6-.8.2-5.5-2.1-6.3-3.1-.3-.4-1.6-1.2-3-1.8-4-2-10.9-5.9-12.3-7.2-.8-.6-1.7-.8-2-.4-.4.3-.7.1-.7-.5 0-.7-.5-1.2-1.1-1.2-.6 0-3-1.2-5.3-2.8-2.3-1.5-6.3-3.8-8.9-5.2-2.6-1.3-4.7-2.8-4.7-3.2 0-.5-.9-.8-2-.8s-2-.4-2-.9-.8-1.1-1.7-1.4c-1-.4-3.6-1.7-5.8-3.1-4.8-3-13.3-7.6-13.9-7.6-.3 0-.8.5-1.1 1.1z"/><path d="M134.8 48.9c-.3.7-12.4 8.1-13.4 8.1-.2 0-2.1 1.1-4.2 2.4-7.4 4.8-18.7 11-19.4 10.8-.5-.1-.8.2-.8.8 0 .5-.7 1-1.5 1s-1.5.5-1.5 1.1c0 .5-.4.7-1 .4-.5-.3-1-.3-1 .2 0 .4-1 1.3-2.3 1.9-2.3 1.1-8.8 4.6-9.7 5.2-.3.2-.6 9.5-.6 20.8-.1 16.2.1 20.6 1.2 21.5.8.6 1.4.8 1.4.4s.6-.3 1.3.2c1 .8 12.3 4.8 16.2 5.8 1.2.2 4.3 1.4 7 2.5 1.8.8 6 2.2 7.8 2.6.4.1.9.3 1.2.4.3.1.8.3 1.3.4.4.1 1.2.4 1.7.7.6.4 3.4 1.2 6.3 2 2.8.7 5.2 1.6 5.2 2.1 0 .4.3.7.8.6 1.2-.4 10.2 2.4 9.8 3.1-.2.3.6.7 1.7.7 2.8.2 4.9.8 6.2 1.6.6.3 2.7.9 4.8 1.3 2 .4 3.7 1.2 3.7 1.7 0 .6.6.8 1.4.5.7-.3 1.8-.1 2.2.3.5.5 1.8 1.1 2.9 1.3 4.5.7 5.6 2.1 5.3 6.8l-.3 4.4-13 7.7c-7.1 4.2-13.6 7.7-14.2 7.7-.7.1-1.3.5-1.3 1 0 2.1-4.1 1.6-8.4-1-2.5-1.6-5.1-2.9-5.7-2.9-.5 0-.7-.5-.3-1.2.5-.7.3-.8-.5-.4-.7.5-2 .1-2.9-.7-.9-.9-2.8-2-4.2-2.6-2.5-1.1-6.1-3.2-7-4.1-.3-.3-1.8-1.3-3.5-2.2-2.5-1.4-3-2.3-3-5.5 0-2.1-.4-4.1-1-4.5-.6-.5-.6-.8.1-.8 1.2 0 1.2-2.9 0-4.8-.4-.6-.3-1.2.2-1.2.6 0 .8-.9.5-2-.6-2.2-.6-2.2-16.3-2.2h-8.5v33.6l11.5 6.7c6.3 3.8 12.4 7.4 13.5 8.1 1.1.7 2.3 1.1 2.8 1 .4-.1.7.3.7.8 0 .6.4 1 .9 1s4.2 2 8.3 4.5c4.2 2.5 8 4.5 8.7 4.5.6 0 1.1.4 1.1 1 0 .5.6 1 1.3 1 .6 0 2.3.9 3.7 2 2.7 2.1 6 2.6 7.6 1 .6-.6 2.6-1.8 4.5-2.8 6.5-3.5 10.4-5.7 10.9-6.2.9-.9 4.4-3 6.6-3.9 1.1-.5 5-2.7 8.7-4.9 3.6-2.3 6.8-3.8 7.1-3.5.3.4.6.2.6-.4 0-.6 1.7-2 3.8-3.1 2-1.1 5.5-3 7.8-4.2l4.1-2.2.1-20.7v-20.7l-2.6-1.2c-1.4-.6-3.3-1.2-4.2-1.2-.9 0-2-.3-2.4-.7-.3-.4-1.6-.8-2.9-1-1.2-.2-2.6-.8-3.1-1.3-.4-.4-1.5-.6-2.2-.3-.8.3-1.4 0-1.4-.6s-.3-1-.7-.9c-1.3.2-6.7-1.4-8-2.4-.7-.5-1.7-.7-2.3-.3-.5.3-1 .1-1-.5s-.5-.8-1-.5c-.5.3-1 .1-1-.6s-.3-1-.6-.7c-.6.7-9.3-2-11.1-3.5-.7-.5-1.3-.7-1.3-.3 0 .5-18.6-5.6-22.5-7.5-1.1-.6-3-1.1-4.3-1.2-1.2 0-2.2-.5-2.2-1 0-.4-.4-.5-1-.2-.5.3-1 .2-1-.4 0-.5-.9-.8-2-.6-1.1.2-2 0-2-.4 0-.5-1.5-1.2-3.4-1.5-3.7-.7-6.2-2.9-5.1-4.6.3-.5.1-1-.5-1s-.8-.5-.3-1.3c.4-.6.8-1.8.8-2.6s.9-1.9 2-2.5c1.1-.6 2.2-1.3 2.5-1.6.3-.3 1.9-1.2 3.5-2 1.7-.8 3.6-2.1 4.3-2.8.7-.6 1.7-1.2 2.2-1.2.5 0 2.6-1.1 4.6-2.5 6.1-4.2 14.5-7.9 15.2-6.8.7 1 18.4 11.4 21.5 12.6.9.3 1.7 1 1.7 1.5 0 .4 1.6 1.4 3.5 2.2l3.5 1.4V115h24.8l-.1-16.8V81.5l-5.4-3.3c-3-1.7-5.8-3.2-6.4-3.2-.5 0-.9-.5-.9-1.1 0-.5-.4-.8-.9-.4-.5.3-1.2.1-1.5-.4-.3-.5-5.2-3.5-10.8-6.7-5.7-3.2-10.5-6.1-10.8-6.4-.3-.3-1.8-1.2-3.5-2-1.6-.8-5.7-3.1-9-5.1-7-4.1-9.3-5.1-9.7-4z"/></svg>